<?xml version="1.0" encoding="utf-8"?>
<svg version="1.0" xmlns="http://www.w3.org/2000/svg" width="1024px" height="1024px" viewBox="0 0 1024 1024" preserveAspectRatio="xMidYMid meet">
  <g fill="#0f0815">
  </g>
  <g fill="#050f2f">
    <path d="M0 512 c0 -512 0 -512 512 -512 512 0 512 0 512 512 0 512 0 512 -512 512 -512 0 -512 0 -512 -512z"/>
  </g>
  <g fill="#341a17">
    <path d="M347.8 439.5 c-9.2 -4 -29.1 -10.8 -36.9 -12.5 -5.7 -1.3 -5.7 -1.3 -6.8 -8.4 -2.1 -14 -3.2 -29.2 -2.6 -36.3 1.1 -11.8 -1.1 -12.5 51 16 44.6 24.5 41.1 22.3 38.4 23.9 -1.3 0.8 -6.8 4.1 -12[...]"/>
  </g>
  <g fill="#0d1d44">
    <path d="M0 512 c0 -512 0 -512 512 -512 512 0 512 0 512 512 0 512 0 512 -512 512 -512 0 -512 0 -512 -512z m516.5 312.3 c-8.1 -36.1 -10.4 -51.3 -11.2 -74.8 -0.7 -20.5 0.5 -33.3 4.4 -50 7.6 -32.4 [...]"/>
    <path d="M488 797.3 c-16.6 -11 -46.8 -24.7 -73.2 -33.4 -15.1 -4.9 -48.4 -13.1 -66.3 -16.4 -31.9 -5.8 -44.1 -7 -73 -6.9 -29.6 0 -50.4 2 -75 6.9 -13.7 2.8 -23.5 4.4 -23.5 3.9 0 -0.2 5.2 -5.9 11.7 [...]"/>
  </g>
  <g fill="#082b62">
  </g>
  <g fill="#373139">
    <path d="M488 797.3 c-16.6 -11 -46.8 -24.7 -73.2 -33.4 -15.1 -4.9 -48.4 -13.1 -66.3 -16.4 -31.9 -5.8 -44.1 -7 -73 -6.9 -29.6 0 -50.4 2 -75 6.9 -13.7 2.8 -23.5 4.4 -23.5 3.9 0 -0.2 5.2 -5.9 11.7 [...]"/>
  </g>
  <g fill="#592b1f">
  </g>
  <g fill="#0a3d84">
    <path d="M519 726 c0 -15 0 -15 12.5 -15 56.7 0 109.8 -22.2 152.9 -64 39.2 -38 63.1 -83.6 72.7 -139.1 2.9 -16.4 3.6 -57.6 1.3 -74.4 -6.7 -49.7 -26.9 -94.9 -59.8 -134.1 -35.1 -41.9 -90.8 -72.4 -14[...]"/>
  </g>
  <g fill="#794229">
  </g>
  <g fill="#094897">
    <path d="M633.5 707.9 c0.4 -0.6 0.1 -1 -0.6 -0.8 -3.4 0.4 -4.2 0 -2.9 -1.6 1.1 -1.4 0.4 -1.5 -5.8 -1.4 -3.8 0.1 -7.4 -0.1 -8 -0.5 -0.6 -0.3 -1.3 0 -1.5 0.6 -0.4 1 -0.6 1 -0.6 0.1 -0.1 -0.7 -1.2 [...]"/>
    <path d="M525.6 676.4 c1 -4.4 7.2 -19.5 9.4 -23.1 2.1 -3.6 2.3 -3.6 16.5 -5.2 25.5 -2.9 52.3 -13.5 73.7 -29.2 11.3 -8.4 30.9 -28.4 39 -39.9 16.6 -23.5 28.8 -54.7 33.3 -85.1 1.9 -13.3 1.9 -38.8 0[...]"/>
  </g>
  <g fill="#0b55a3">
    <path d="M744 607 c-2.4 -0.4 -5.3 -0.5 -6.2 -0.2 -1.4 0.3 -1.7 0 -1.2 -1.2 0.3 -0.9 1.4 -1.6 2.3 -1.7 1 0 1.1 -0.2 0.3 -0.6 -0.6 -0.2 -1 -0.9 -0.6 -1.4 0.3 -0.5 0.1 -0.9 -0.5 -0.9 -0.5 0 -1.3 0.[...]"/>
    <path d="M656 602.1 c0 -0.7 -0.4 -0.9 -1 -0.6 -0.5 0.3 -1 0.2 -1 -0.3 0 -0.5 -1.2 -0.8 -2.7 -0.5 -2.4 0.3 -2.5 0.2 -0.8 -0.6 1.1 -0.5 1.6 -1 1.1 -1 -0.5 -0.1 -0.2 -0.9 0.5 -1.8 1.2 -1.5 1.2 -1.6[...]"/>
  </g>
  <g fill="#ad4324">
  </g>
  <g fill="#cd410d">
    <path d="M488 797.3 c-16.6 -11 -46.8 -24.7 -73.2 -33.4 -15.1 -4.9 -48.4 -13.1 -66.3 -16.4 -31.9 -5.8 -44.1 -7 -73 -6.9 -29.6 0 -50.4 2 -75 6.9 -13.7 2.8 -23.5 4.4 -23.5 3.9 0 -0.2 5.2 -5.9 11.7 [...]"/>
    <path d="M347.8 439.5 c-9.2 -4 -29.1 -10.8 -36.9 -12.5 -5.6 -1.3 -5.6 -1.3 -6.9 -7.9 -0.6 -3.6 -1.4 -15 -1.7 -25.2 -0.6 -18.6 -0.6 -18.6 2.1 -19.3 3 -0.7 7.7 1.6 48.1 23.7 44.6 24.5 41.1 22.3 38[...]"/>
  </g>
  <g fill="#0963b4">
    <path d="M717.5 514.8 c-2.7 -0.4 -8.1 -1 -11.8 -1.2 -3.8 -0.3 -7.6 -1.1 -8.4 -1.7 -1.2 -1 -1.7 -1 -2.4 0.2 -0.8 1.1 -0.9 0.9 -0.5 -0.6 3.9 -15.1 5.7 -48.4 3.7 -66.6 -8.4 -72.9 -56.8 -132.9 -125.[...]"/>
    <path d="M759.7 443 c-0.3 -1.4 -1.1 -6.5 -1.7 -11.5 -7.3 -60.5 -42.7 -124.3 -89.7 -161.6 -60.9 -48.4 -140.9 -65.7 -216.4 -46.9 -46.3 11.6 -84.2 33.6 -121 70 -29.8 29.6 -46.2 57 -62.4 104.8 -0.2 [...]"/>
    <path d="M387.3 401.2 c-6.8 -3.7 -12.3 -7.1 -12.3 -7.7 0 -0.5 3 -5.5 6.7 -11 9.1 -13.7 30.2 -34.7 43.8 -43.7 17.3 -11.5 36 -19.3 57.5 -23.9 8.9 -2 13.5 -2.3 30.5 -2.3 16.9 0 21.6 0.3 30.1 2.2 12[...]"/>
  </g>
  <g fill="#91653e">
  </g>
  <g fill="#de6017">
  </g>
  <g fill="#b37440">
  </g>
  <g fill="#f77412">
    <path d="M489.5 798.3 c-15.5 -10.2 -36.3 -20.4 -60.4 -29.4 -14.3 -5.3 -14.3 -5.3 -13.8 -27.4 0.5 -24.9 2.2 -36.6 8.7 -62 5.7 -22.4 9.3 -33.8 16.6 -52.2 3.5 -8.9 6.4 -16.5 6.4 -16.9 0 -2.3 -19.2 [...]"/>
  </g>
  <g fill="#c79054">
  </g>
  <g fill="#f08b36">
    <path d="M489.5 798.3 c-15.5 -10.2 -36.3 -20.4 -60.4 -29.4 -14.3 -5.3 -14.3 -5.3 -13.8 -27.4 0.5 -24.9 2.2 -36.6 8.7 -62 5.7 -22.4 9.3 -33.8 16.6 -52.2 3.5 -8.9 6.4 -16.5 6.4 -16.9 0 -2.1 -18.5 [...]"/>
  </g>
  <g fill="#fb9622">
    <path d="M337.4 474.8 c-7 -5.5 -31 -17.1 -43.9 -21.2 -22.2 -7 -40 -9.6 -67 -9.6 -18 0 -18 0 -19.6 -5.1 -1.6 -5.2 -1.6 -5.2 25.5 -4.6 35 0.7 52.1 3.1 82.1 11.8 12.8 3.7 40.8 13.9 42.3 15.3 0.3 0.[...]"/>
    <path d="M372.5 450 c4.2 -4.4 5.3 -5.3 17.4 -13.4 24.6 -16.4 49.1 -24.5 79.1 -26.1 15.2 -0.8 26.1 0.7 48.7 6.5 19.5 5.1 28.2 5.9 38.9 3.5 10.3 -2.3 26.8 -8.1 47.3 -16.6 9 -3.8 17.7 -6.9 19.3 -6.[...]"/>
  </g>
  <g fill="#f1a047">
    <path d="M374.2 448.5 c3.7 -3.7 6.2 -5.3 7.2 -4.9 2.2 0.9 1.5 1.6 -6.1 6.3 -6.8 4.2 -6.8 4.2 -1.1 -1.4z"/>
    <path d="M620.4 401.8 c0.5 -2.2 0.3 -2.8 -1.1 -2.8 -1.2 0 -1.4 -0.3 -0.6 -1.1 0.6 -0.6 2.4 -0.9 4.1 -0.7 3.1 0.3 3.1 0.3 0.1 3.8 -3 3.5 -3 3.5 -2.5 0.8z"/>
  </g>
  <g fill="#fcb551">
    <path d="M423 684.5 c-0.1 -5.5 9.7 -37.3 17.6 -57.2 3.5 -8.9 6.4 -16.5 6.4 -16.9 0 -2.1 -18.5 6.6 -29.9 14 -12.5 8.1 -25.4 19.4 -35.3 30.9 -3.2 3.7 -5.8 6.6 -5.8 6.4 0 -1.1 5.2 -15 7.4 -19.9 14.[...]"/>
  </g>
  <g fill="#ecbb6c">
    <path d="M660.5 447.7 c0 -12.5 -1.4 -14.9 -3.9 -7 -0.9 2.6 -1.3 3.7 -1 2.3 0.2 -1.4 0.7 -4.9 1.1 -7.8 0.5 -4.1 0.9 -5.2 2.2 -5 0.9 0.2 1.9 1.7 2.2 3.3 0.9 4.3 1 24.3 0.2 24.8 -0.5 0.3 -0.8 -4.5 [...]"/>
  </g>
</svg>