<?xml version="1.0" encoding="utf-8"?>
<!DOCTYPE svg PUBLIC "-//W3C//DTD SVG 1.0//EN" "http://www.w3.org/TR/2001/REC-SVG-20010904/DTD/svg10.dtd">
<svg version="1.0" xmlns="http://www.w3.org/2000/svg" width="1024px" height="1024px" viewBox="0 0 1024 1024" preserveAspectRatio="xMidYMid meet">
 <g fill="#0f0815">
 </g>
 <g fill="#050f2f">
  <path d="M0 512 c0 -512 0 -512 512 -512 512 0 512 0 512 512 0 512 0 512 -512 512 -512 0 -512 0 -512 -512z"/>
 </g>
 <g fill="#341a17">
  <path d="M347.8 439.5 c-9.2 -4 -29.1 -10.8 -36.9 -12.5 -5.7 -1.3 -5.7 -1.3 -6.8 -8.4 -2.1 -14 -3.2 -29.2 -2.6 -36.3 1.1 -11.8 -1.1 -12.5 51 16 44.6 24.5 41.1 22.3 38.4 23.9 -1.3 0.8 -6.8 4.1 -12.2 7.4 -5.3 3.2 -12.1 7.6 -14.9 9.7 -2.8 2 -5.9 3.7 -6.7 3.6 -0.9 0 -5.1 -1.6 -9.3 -3.4z"/>
 </g>
 <g fill="#0d1d44">
  <path d="M0 512 c0 -512 0 -512 512 -512 512 0 512 0 512 512 0 512 0 512 -512 512 -512 0 -512 0 -512 -512z m516.5 312.3 c-8.1 -36.1 -10.4 -51.3 -11.2 -74.8 -0.7 -20.5 0.5 -33.3 4.4 -50 7.6 -32.4 20.9 -51.5 46.3 -66.6 11.6 -6.8 23.6 -11.4 42.5 -16.3 25.9 -6.6 37.2 -11.4 47.2 -20.1 6.1 -5.3 13.4 -16 15.7 -22.8 2.1 -6.2 2.1 -15.9 0 -20.3 -3.6 -7.5 -10.7 -8.9 -32.5 -6.3 -12.5 1.4 -24.4 0.6 -30.4 -2 -3.8 -1.7 -4.5 -2.4 -4.5 -4.8 0 -3.5 7.1 -16.1 13.8 -24.5 7.6 -9.6 25.9 -26.8 28.5 -26.8 0.3 0 0.1 1.9 -0.5 4.2 -1.7 7.7 3 12.8 11.9 12.8 7.6 0 13.6 -6 20.3 -20.5 6.6 -14.2 7.5 -18.9 7.4 -38 -0.1 -16 -0.3 -18.2 -4.2 -36.4 -3.4 -16 -4.9 -20.9 -8.4 -28 -3 -6 -5.3 -9.3 -7.8 -10.9 -4.2 -2.8 -6 -2.5 -19.5 3.3 -54.6 23.4 -80.1 32.5 -91.7 32.5 -2 0 -13.1 -2.3 -24.7 -5 -24.9 -5.9 -37.3 -7.5 -53.6 -6.7 -15 0.7 -29.2 3.6 -43.7 8.8 -6.2 2.2 -12.6 4.5 -14.3 5.1 -2.6 0.9 -3.8 0.5 -9.5 -3 -3.6 -2.1 -11.4 -6.5 -17.5 -9.7 -19 -9.9 -27.7 -14.7 -37 -20.1 -20.9 -12.1 -38.9 -20.4 -44.3 -20.4 -4.7 0 -9 3.4 -10.3 8.2 -1.4 5.4 -0.6 44.6 1.1 53.6 0.7 3.5 1.1 6.5 0.9 6.7 -0.2 0.2 -2.7 -0.1 -5.4 -0.6 -15.7 -2.9 -31.2 -4.2 -58.2 -4.6 -34.8 -0.6 -39.5 -0.2 -43.5 3.7 -2.4 2.5 -2.8 3.6 -2.8 8.7 0 10.8 6.9 33.9 15.5 51.8 14.8 30.9 37.3 56.5 67 76.3 7.2 4.7 13.2 8.7 13.4 8.9 0.7 0.5 -5.2 18 -10.6 31.3 -11.8 29.3 -29.8 59.8 -50 85 -10.4 13 -14.4 17.5 -32.7 37.6 -16.8 18.3 -43 49.8 -41.8 50.2 0.6 0.2 9.1 -1.7 18.9 -4.2 21.6 -5.5 48.4 -10.9 65.3 -13.1 16.7 -2.3 58.1 -3.1 73.6 -1.6 79.6 8 141.9 28.5 201.9 66.2 7.7 4.8 14.5 8.8 15.1 8.9 0.8 0 0.8 -1.6 -0.1 -5.7z"/>
  <path d="M488 797.3 c-16.6 -11 -46.8 -24.7 -73.2 -33.4 -15.1 -4.9 -48.4 -13.1 -66.3 -16.4 -31.9 -5.8 -44.1 -7 -73 -6.9 -29.6 0 -50.4 2 -75 6.9 -13.7 2.8 -23.5 4.4 -23.5 3.9 0 -0.2 5.2 -5.9 11.7 -12.6 52.8 -55.8 80.3 -98.3 98.2 -152 3.6 -10.9 3.1 -10.6 12.6 -8.3 7.8 1.9 18.8 1.9 25.3 0 8.8 -2.7 9.4 -2.3 -17.3 -12 -42.9 -15.7 -74.2 -42.8 -95.4 -82.6 -8.8 -16.5 -18.6 -45.8 -16.1 -48.3 1.5 -1.5 43.7 -2 59.1 -0.7 30.9 2.8 60.8 10 90.6 21.9 12.1 4.8 12.1 4.8 18.5 -0.1 3.5 -2.7 8.4 -6.8 10.9 -9.1 17.9 -16 45.3 -29.5 69.4 -34.1 26.4 -5.1 43.1 -4.3 73.2 3.5 19.5 5.1 28.2 5.9 38.9 3.5 10.3 -2.3 26.8 -8.1 47.3 -16.6 16.7 -7 24.1 -8.8 20.8 -5.1 -2.4 2.6 -2.1 3.9 0.3 1.7 1.2 -1 1.9 -2.4 1.6 -3.1 -0.7 -1.9 3.4 -4.9 11.6 -8.3 10.7 -4.3 11.2 -4.2 13.8 2.7 2.4 6.4 5 19.6 5 25.6 0 2.2 1 6 2.2 8.5 2 4.1 2.3 6.1 2.3 19.6 0 17.7 -1.2 23.4 -8.1 37.3 -4.8 9.9 -6.3 11.6 -3.7 4.2 0.8 -2.5 1.8 -7.3 2 -10.7 0.6 -6.3 0.6 -6.3 -3.5 -6.3 -7.3 0 -26 12 -43.4 27.9 -11.3 10.3 -24.6 32.3 -25.6 42.1 -1.2 12.3 10.1 20.1 32.2 22.1 8.9 0.8 13.1 0.7 21.5 -0.5 5.8 -0.9 11.9 -1.6 13.8 -1.6 3.1 0 3.3 0.2 3.3 3.3 0 5.3 -4.4 12.7 -12.2 20.4 -10.9 10.7 -15 12.6 -45 20.2 -23.5 6 -43.2 15.2 -58.4 27.5 -11 8.8 -19 17.7 -24.5 27.2 -12.5 21.5 -17.7 43.4 -18.6 78.4 -0.6 21.7 0.8 39.1 4.5 57.3 1 4.8 1.6 8.7 1.3 8.6 -0.3 0 -4.4 -2.6 -9.1 -5.6z m-32.8 -321.4 c8 -3.2 13.2 -4.5 24.8 -6.4 5.8 -0.9 14 -3 18.3 -4.5 7.9 -2.9 19.7 -9.5 19.7 -11 0 -1.4 -13.6 -2.2 -29 -1.8 -16.7 0.4 -20.2 1.6 -29.1 9.6 -5.5 5 -12.8 16.2 -10.4 16.2 0.2 0 2.8 -0.9 5.7 -2.1z"/>
 </g>
 <g fill="#082b62">
 </g>
 <g fill="#373139">
  <path d="M488 797.3 c-16.6 -11 -46.8 -24.7 -73.2 -33.4 -15.1 -4.9 -48.4 -13.1 -66.3 -16.4 -31.9 -5.8 -44.1 -7 -73 -6.9 -29.6 0 -50.4 2 -75 6.9 -13.7 2.8 -23.5 4.4 -23.5 3.9 0 -0.2 5.2 -5.9 11.7 -12.6 52.8 -55.8 80.3 -98.3 98.2 -152 3.6 -10.9 3.1 -10.6 12.6 -8.3 7.8 1.9 18.8 1.9 25.3 0 8.8 -2.7 9.4 -2.3 -17.3 -12 -42.9 -15.7 -74.2 -42.8 -95.4 -82.6 -8.8 -16.5 -18.6 -45.8 -16.1 -48.3 1.5 -1.5 43.7 -2 59.1 -0.7 30.9 2.8 60.8 10 90.6 21.9 12.1 4.8 12.1 4.8 18.5 -0.1 3.5 -2.7 8.4 -6.8 10.9 -9.1 17.9 -16 45.3 -29.5 69.4 -34.1 26.4 -5.1 43.1 -4.3 73.2 3.5 19.5 5.1 28.2 5.9 38.9 3.5 10.3 -2.3 26.8 -8.1 47.3 -16.6 16.7 -7 24.1 -8.8 20.8 -5.1 -2.4 2.6 -2.1 3.9 0.3 1.7 1.2 -1 1.9 -2.4 1.6 -3.1 -0.7 -1.9 3.4 -4.9 11.6 -8.3 10.7 -4.3 11.2 -4.2 13.8 2.6 2.4 6.5 5 19.7 5 25.7 0 2.2 1 6 2.2 8.5 2 4.1 2.3 6.1 2.3 19.6 0 17.7 -1.2 23.4 -8.1 37.3 -4.8 9.9 -6.3 11.6 -3.7 4.2 0.8 -2.5 1.8 -7.3 2 -10.7 0.6 -6.3 0.6 -6.3 -3.5 -6.3 -7.3 0 -26 12 -43.4 27.9 -11.3 10.3 -24.6 32.3 -25.6 42.1 -1.2 12.3 10.1 20.1 32.2 22.1 8.9 0.8 13.1 0.7 21.5 -0.5 5.8 -0.9 11.9 -1.6 13.8 -1.6 3.1 0 3.3 0.2 3.3 3.3 0 5.3 -4.4 12.7 -12.2 20.4 -10.9 10.7 -15 12.6 -45 20.2 -23.5 6 -43.2 15.2 -58.4 27.5 -11 8.8 -19 17.7 -24.5 27.2 -12.5 21.5 -17.7 43.4 -18.6 78.4 -0.6 21.7 0.8 39.1 4.5 57.3 1 4.8 1.6 8.7 1.3 8.6 -0.3 0 -4.4 -2.6 -9.1 -5.6z m-32.8 -321.4 c8 -3.2 13.2 -4.5 24.8 -6.4 5.8 -0.9 14 -3 18.3 -4.5 7.9 -2.9 19.7 -9.5 19.7 -11 0 -1.4 -13.6 -2.2 -29 -1.8 -16.7 0.4 -20.2 1.6 -29.1 9.6 -5.5 5 -12.8 16.2 -10.4 16.2 0.2 0 2.8 -0.9 5.7 -2.1z"/>
 </g>
 <g fill="#592b1f">
 </g>
 <g fill="#0a3d84">
  <path d="M519 726 c0 -15 0 -15 12.5 -15 56.7 0 109.8 -22.2 152.9 -64 39.2 -38 63.1 -83.6 72.7 -139.1 2.9 -16.4 3.6 -57.6 1.3 -74.4 -6.7 -49.7 -26.9 -94.9 -59.8 -134.1 -35.1 -41.9 -90.8 -72.4 -147.7 -80.9 -62.3 -9.4 -125.5 4.5 -176.9 38.8 -22.4 14.9 -51.4 41.6 -64.9 59.8 -20 27.1 -33.9 55.8 -41.6 86.4 -3.3 13 -3.3 13 -17.9 13.3 -17.1 0.3 -15.9 1.8 -12.5 -15.5 5.7 -29.9 20.6 -64.1 40.7 -93.3 40.9 -59.6 106.5 -104.7 172.4 -118.5 62.5 -13.2 130.7 -4.6 186.3 23.5 29.5 14.8 51.5 30.9 74.1 54.2 47.9 49.4 74.1 109 79.5 181.2 3.6 46.7 -6.7 99.3 -28 143.2 -21.8 44.9 -53.1 80.9 -93.6 107.8 -17.2 11.4 -23.7 15 -40 22.1 -30.1 13.2 -60.8 19.5 -94.2 19.5 -15.3 0 -15.3 0 -15.3 -15z"/>
 </g>
 <g fill="#794229">
 </g>
 <g fill="#094897">
  <path d="M633.5 707.9 c0.4 -0.6 0.1 -1 -0.6 -0.8 -3.4 0.4 -4.2 0 -2.9 -1.6 1.1 -1.4 0.4 -1.5 -5.8 -1.4 -3.8 0.1 -7.4 -0.1 -8 -0.5 -0.6 -0.3 -1.3 0 -1.5 0.6 -0.4 1 -0.6 1 -0.6 0.1 -0.1 -0.7 -1.2 -1.3 -2.6 -1.3 -1.4 0 -2.5 0.6 -2.5 1.3 0 0.8 -0.3 0.7 -1 -0.3 -0.7 -1.2 -1.2 -1.2 -2.2 -0.2 -0.6 0.6 -2 1.2 -3 1.2 -1 0 -1.8 0.5 -1.8 1 0 0.6 -0.5 1 -1.1 1 -0.5 0 -0.7 -0.5 -0.3 -1.2 0.5 -0.7 0.2 -0.9 -0.8 -0.5 -2.1 0.7 -5.7 -1.8 -4.3 -3.1 0.6 -0.5 3.9 -1.9 7.5 -3.2 29.3 -10.3 58.1 -28.5 82.4 -52 39.2 -38 63.1 -83.6 72.7 -139.1 2.9 -16.4 3.6 -57.6 1.3 -74.4 -6.7 -49.7 -26.9 -94.9 -59.8 -134.1 -35.1 -41.9 -90.8 -72.4 -147.7 -80.9 -62.3 -9.4 -125.5 4.5 -176.9 38.8 -22.4 14.9 -51.4 41.6 -64.9 59.8 -20 27.1 -33.9 55.8 -41.6 86.4 -3.3 13 -3.3 13 -17.9 13.3 -17.1 0.3 -15.9 1.8 -12.5 -15.5 5.7 -29.9 20.6 -64.1 40.7 -93.3 40.9 -59.6 106.5 -104.7 172.4 -118.5 62.5 -13.2 130.7 -4.6 186.3 23.5 29.5 14.8 51.5 30.9 74.1 54.2 47.9 49.4 74.1 109 79.5 181.2 3.6 46.7 -6.7 99.3 -28 143.2 -17.1 35.3 -38.4 63 -67.6 88.2 -16 13.7 -39 29.5 -40.3 27.5 -0.4 -0.5 -3.6 -0.9 -7.2 -0.8 -3.6 0 -7.1 -0.3 -7.8 -0.9 -0.8 -0.6 -1.8 -0.2 -3.1 1.3 -1.9 2.2 -3.7 2.9 -2.6 1z"/>
  <path d="M525.6 676.4 c1 -4.4 7.2 -19.5 9.4 -23.1 2.1 -3.6 2.3 -3.6 16.5 -5.2 25.5 -2.9 52.3 -13.5 73.7 -29.2 11.3 -8.4 30.9 -28.4 39 -39.9 16.6 -23.5 28.8 -54.7 33.3 -85.1 1.9 -13.3 1.9 -38.8 0 -53 -9.4 -70.9 -57.6 -129.4 -125.1 -151.8 -35.2 -11.7 -72.5 -12.8 -108.9 -3.1 -44.3 11.7 -84 40.6 -110.7 80.3 -7.9 11.8 -7.9 11.8 -15.6 7.6 -17.5 -9.5 -18.4 -10.1 -17.9 -11.9 0.9 -3.5 16.4 -25.6 25.2 -35.8 29.1 -34.1 70 -60.1 111.9 -71.2 67.4 -17.8 136.2 -3.6 189.6 39 10.9 8.8 29.9 28.2 37.9 38.8 38.3 50.9 52.5 115.2 39.6 179.7 -8.7 43.2 -34.9 89.4 -66.9 117.7 -15 13.2 -26.4 21 -43 29.3 -25 12.6 -46.8 18.3 -73.4 19.2 -15.3 0.6 -15.3 0.6 -14.6 -2.3z"/>
 </g>
 <g fill="#0b55a3">
  <path d="M744 607 c-2.4 -0.4 -5.3 -0.5 -6.2 -0.2 -1.4 0.3 -1.7 0 -1.2 -1.2 0.3 -0.9 1.4 -1.6 2.3 -1.7 1 0 1.1 -0.2 0.3 -0.6 -0.6 -0.2 -1 -0.9 -0.6 -1.4 0.3 -0.5 0.1 -0.9 -0.5 -0.9 -0.5 0 -1.3 0.9 -1.6 2 -0.6 1.7 -2.3 2.5 -4.7 2.1 -0.5 0 -0.8 0.5 -0.8 1.2 0 0.9 -0.2 0.9 -0.8 0.1 -0.4 -0.7 -1.8 -1.4 -3.2 -1.5 -1.4 -0.2 -2.8 -0.8 -3.2 -1.4 -0.5 -0.6 -0.8 -0.5 -0.8 0.3 0 0.6 -0.7 1.2 -1.6 1.2 -1.3 0 -1.2 -0.6 0.7 -3.7 18.5 -30.8 29 -58.6 35 -93.4 2.9 -16.4 3.6 -57.6 1.3 -74.4 -6.7 -49.7 -26.9 -94.9 -59.8 -134.1 -35.1 -41.9 -90.8 -72.4 -147.7 -80.9 -62.3 -9.4 -125.5 4.5 -176.9 38.8 -22.4 14.9 -51.4 41.6 -64.9 59.8 -20 27.1 -33.9 55.8 -41.6 86.4 -3.3 13 -3.3 13 -17.9 13.3 -17.1 0.3 -15.9 1.8 -12.5 -15.5 5.7 -29.9 20.6 -64.1 40.7 -93.3 40.9 -59.6 106.5 -104.7 172.4 -118.5 62.5 -13.2 130.7 -4.6 186.3 23.5 29.5 14.8 51.5 30.9 74.1 54.2 41.3 42.5 66.7 93.4 76.3 152.7 7.8 47.5 3.6 95.4 -12.5 142.4 -4.6 13.3 -14.2 34.7 -17 37.8 -0.8 0.9 -1.8 2.9 -2.2 4.4 -0.9 3.1 -3.3 3.6 -11.2 2.5z m5 -6 c0 -0.5 0.9 -1 2 -1 1.1 0 2 0.6 2 1.3 0 0.8 0.3 0.9 0.8 0.1 0.4 -0.6 1.4 -1.4 2.2 -1.7 1.2 -0.4 1.1 -0.6 -0.2 -0.6 -1 -0.1 -1.8 -0.5 -1.8 -1.1 0 -0.5 -1.2 -1 -2.6 -1 -1.4 0 -2.3 0.4 -2 0.9 0.3 0.5 -0.1 1.1 -0.9 1.5 -1.7 0.6 -2.1 2.6 -0.5 2.6 0.6 0 1 -0.4 1 -1z"/>
  <path d="M656 602.1 c0 -0.7 -0.4 -0.9 -1 -0.6 -0.5 0.3 -1 0.2 -1 -0.3 0 -0.5 -1.2 -0.8 -2.7 -0.5 -2.4 0.3 -2.5 0.2 -0.8 -0.6 1.1 -0.5 1.6 -1 1.1 -1 -0.5 -0.1 -0.2 -0.9 0.5 -1.8 1.2 -1.5 1.2 -1.6 -0.4 -1 -0.9 0.4 1.3 -3.1 5 -7.6 21.4 -26.3 35.6 -59.2 40.8 -94.8 1.9 -13.3 1.9 -38.8 0 -53 -9.4 -70.9 -57.6 -129.4 -125.1 -151.8 -35.2 -11.7 -72.5 -12.8 -108.9 -3.1 -44.3 11.7 -84 40.6 -110.7 80.3 -7.9 11.8 -7.9 11.8 -15.6 7.6 -17.5 -9.5 -18.4 -10.1 -17.9 -11.9 0.9 -3.5 16.4 -25.6 25.2 -35.8 29.1 -34.1 70 -60.1 111.9 -71.2 67.4 -17.8 136.2 -3.6 189.6 39 10.9 8.8 29.9 28.2 37.9 38.8 38.3 50.9 52.5 115.2 39.6 179.7 -4.5 22.3 -14.2 47.3 -26.7 68.2 -6.9 11.5 -10.3 15.8 -11.8 14.8 -0.6 -0.3 -1.7 0.1 -2.5 0.9 -1 1 -2.7 1.4 -4.8 1.1 -1.8 -0.3 -2.7 -0.3 -2 0.1 1 0.4 1 0.8 0 1.9 -0.8 0.9 -1.4 1 -1.9 0.2 -0.5 -0.8 -1.2 -0.6 -2.5 0.5 -2.3 2 -4.2 1.3 -3.6 -1.2 0.4 -1.4 0 -2 -1.1 -2 -1 0 -1.4 0.5 -1.1 1.1 0.4 0.5 -0.1 1.9 -1.1 3 -1.3 1.5 -1.9 1.6 -2.6 0.7 -0.6 -1 -0.8 -1 -0.8 0 0 0.6 -0.4 1.2 -1 1.2 -0.5 0 -0.7 -0.8 -0.3 -1.7 0.6 -1.6 0.4 -1.6 -1.5 0.1 -1.4 1.2 -2.2 1.4 -2.2 0.7z"/>
 </g>
 <g fill="#ad4324">
 </g>
 <g fill="#cd410d">
  <path d="M488 797.3 c-16.6 -11 -46.8 -24.7 -73.2 -33.4 -15.1 -4.9 -48.4 -13.1 -66.3 -16.4 -31.9 -5.8 -44.1 -7 -73 -6.9 -29.6 0 -50.4 2 -75 6.9 -13.7 2.8 -23.5 4.4 -23.5 3.9 0 -0.2 5.2 -5.9 11.7 -12.6 52.8 -55.8 80.3 -98.3 98.2 -152 3.6 -10.9 3.1 -10.6 12.6 -8.3 7.8 1.9 18.8 1.9 25.3 0 8.8 -2.7 9.4 -2.3 -17.3 -12 -42.9 -15.7 -74.2 -42.8 -95.4 -82.6 -8.8 -16.5 -18.6 -45.8 -16.1 -48.3 1.5 -1.5 43.7 -2 59.1 -0.7 30.9 2.8 60.8 10 90.6 21.9 12.1 4.8 12.1 4.8 18.5 -0.1 3.5 -2.7 8.4 -6.8 10.9 -9.1 17.9 -16 45.3 -29.5 69.4 -34.1 26.4 -5.1 43.1 -4.3 73.2 3.5 19.5 5.1 28.2 5.9 38.9 3.5 10.3 -2.3 26.8 -8.1 47.3 -16.6 9 -3.8 17.7 -6.9 19.3 -6.9 2.9 0 2.9 0 -0.7 4.6 -3.9 5.2 -3.9 5.2 -2.4 9.1 1.5 4 4.2 6.7 14 13.9 9.2 6.8 12.5 10.4 16 17.8 1.3 2.5 2.6 4.6 3 4.6 1.1 0 2.9 -5.8 3.6 -11.7 0.4 -4.2 0.9 -5.3 2.1 -5.1 2.5 0.5 3.4 7.1 2.9 19.8 -0.6 13.9 -2.3 20.5 -8.3 32.8 -4.8 9.9 -6.3 11.6 -3.7 4.2 0.8 -2.5 1.8 -7.3 2 -10.7 0.6 -6.3 0.6 -6.3 -3.5 -6.3 -7.3 0 -26 12 -43.4 27.9 -11.3 10.3 -24.6 32.3 -25.6 42.1 -1.2 12.3 10.1 20.1 32.2 22.1 8.9 0.8 13.1 0.7 21.5 -0.5 5.8 -0.9 11.9 -1.6 13.8 -1.6 3.1 0 3.3 0.2 3.3 3.3 0 5.3 -4.4 12.7 -12.2 20.4 -10.9 10.7 -15 12.6 -45 20.2 -23.5 6 -43.2 15.2 -58.4 27.5 -11 8.8 -19 17.7 -24.5 27.2 -12.5 21.5 -17.7 43.4 -18.6 78.4 -0.6 21.7 0.8 39.1 4.5 57.3 1 4.8 1.6 8.7 1.3 8.6 -0.3 0 -4.4 -2.6 -9.1 -5.6z m-32.8 -321.4 c8 -3.2 13.2 -4.5 24.8 -6.4 5.8 -0.9 14 -3 18.3 -4.5 7.9 -2.9 19.7 -9.5 19.7 -11 0 -1.4 -13.6 -2.2 -29 -1.8 -16.7 0.4 -20.2 1.6 -29.1 9.6 -5.5 5 -12.8 16.2 -10.4 16.2 0.2 0 2.8 -0.9 5.7 -2.1z"/>
  <path d="M347.8 439.5 c-9.2 -4 -29.1 -10.8 -36.9 -12.5 -5.6 -1.3 -5.6 -1.3 -6.9 -7.9 -0.6 -3.6 -1.4 -15 -1.7 -25.2 -0.6 -18.6 -0.6 -18.6 2.1 -19.3 3 -0.7 7.7 1.6 48.1 23.7 44.6 24.5 41.1 22.3 38.4 23.9 -1.3 0.8 -6.8 4.1 -12.2 7.4 -5.3 3.2 -12.1 7.6 -14.9 9.7 -2.8 2 -5.9 3.7 -6.7 3.6 -0.9 0 -5.1 -1.6 -9.3 -3.4z"/>
 </g>
 <g fill="#0963b4">
  <path d="M717.5 514.8 c-2.7 -0.4 -8.1 -1 -11.8 -1.2 -3.8 -0.3 -7.6 -1.1 -8.4 -1.7 -1.2 -1 -1.7 -1 -2.4 0.2 -0.8 1.1 -0.9 0.9 -0.5 -0.6 3.9 -15.1 5.7 -48.4 3.7 -66.6 -8.4 -72.9 -56.8 -132.9 -125.7 -155.8 -35.2 -11.7 -72.5 -12.8 -108.9 -3.1 -44.3 11.7 -84.1 40.6 -110.7 80.3 -7.9 11.8 -7.9 11.8 -15.6 7.6 -17.5 -9.5 -18.4 -10.1 -17.9 -11.9 0.9 -3.5 16.4 -25.6 25.2 -35.8 29.1 -34.1 70 -60.1 111.9 -71.2 67.4 -17.8 136.2 -3.6 189.6 39 10.9 8.8 29.9 28.2 37.9 38.8 24.6 32.6 39 69.8 43.2 111.1 1 10.2 1 12.6 -0.2 14.8 -1.6 3 -1.5 17.9 0.2 19.9 0.7 0.9 0.7 4.3 -0.1 11.6 -1.1 9.6 -3.6 24.9 -4.2 25.3 -0.2 0.1 -2.5 -0.2 -5.3 -0.7z"/>
  <path d="M759.7 443 c-0.3 -1.4 -1.1 -6.5 -1.7 -11.5 -7.3 -60.5 -42.7 -124.3 -89.7 -161.6 -60.9 -48.4 -140.9 -65.7 -216.4 -46.9 -46.3 11.6 -84.2 33.6 -121 70 -29.8 29.6 -46.2 57 -62.4 104.8 -0.2 0.6 -1.1 1.2 -2 1.2 -0.8 0 -1.5 0.5 -1.5 1.2 0 0.6 -0.9 0.1 -1.9 -1.1 -1.3 -1.4 -2 -1.8 -2.3 -0.9 -0.5 1.3 -8.8 2 -8.8 0.7 0 -0.4 -0.9 -0.5 -2 -0.2 -2.5 0.7 -9.3 -2.4 -8.4 -3.8 0.3 -0.6 -0.2 -1.6 -1.1 -2.3 -1.5 -1.1 -1.4 -2.1 2 -12.6 2.1 -6.3 3.9 -11.7 4.2 -12 0.2 -0.2 0.8 0.2 1.3 1 1.1 1.8 1.9 1.1 2.2 -2.1 0.2 -1.3 0.7 -2.7 1.2 -3 1.1 -0.9 -0.3 -3.1 -1.5 -2.4 -1.5 1 -1.1 -0.3 3.1 -9.2 2.6 -5.6 4.4 -8.3 5.4 -8.1 0.8 0.2 1.5 -0.1 1.5 -0.5 0 -0.5 0.9 -1.7 2 -2.6 1.1 -1 1.8 -2.1 1.4 -2.5 -0.3 -0.3 -0.1 -0.6 0.6 -0.6 0.7 0 1.9 -0.6 2.7 -1.4 1.2 -1.3 1.2 -1.5 -0.3 -1.8 -1.5 -0.3 -1.5 -0.4 0 -1.9 1.4 -1.4 1.4 -1.9 0.2 -3.6 -1.3 -1.9 -0.7 -3.2 7.8 -15.9 14.9 -22.4 28.6 -38.5 48 -56.3 36.6 -33.5 83.6 -58.3 127.9 -67.6 62.5 -13.2 130.7 -4.6 186.3 23.5 29.5 14.8 51.5 30.9 74.1 54.2 41.4 42.7 67.2 94.4 76.3 153.1 2.7 17.5 3.3 23.5 2.1 24.2 -0.5 0.3 -1 0 -1 -0.7 0 -0.9 -0.3 -0.9 -1 0.2 -0.6 1 -1 1.1 -1 0.3 0 -0.8 -1.4 -1.3 -3.6 -1.3 -2.1 0 -3.3 0.4 -2.9 1 0.3 0.6 -0.1 1 -1 1 -0.9 0 -1.3 -0.5 -1 -1 0.8 -1.3 -0.6 -1.7 -9.2 -2.5 -6.9 -0.6 -7.2 -0.5 -7.5 1.7 -0.4 2.3 -0.4 2.3 -1.1 -0.2z"/>
  <path d="M387.3 401.2 c-6.8 -3.7 -12.3 -7.1 -12.3 -7.7 0 -0.5 3 -5.5 6.7 -11 9.1 -13.7 30.2 -34.7 43.8 -43.7 17.3 -11.5 36 -19.3 57.5 -23.9 8.9 -2 13.5 -2.3 30.5 -2.3 16.9 0 21.6 0.3 30.1 2.2 12.8 2.8 28.3 8.1 38.8 13.4 15.9 8 35.3 22.8 45.8 35.1 4.8 5.5 4.8 5.5 -3 10 -19.1 10.9 -17.6 10.5 -22.7 6.1 -18.4 -15.7 -30.2 -22.9 -47.3 -28.8 -33.1 -11.5 -71.7 -8.6 -102.5 7.7 -16.5 8.7 -36.8 27.1 -47.1 42.6 -2.6 3.9 -5.1 7.1 -5.4 7.1 -0.4 -0.1 -6.2 -3.1 -12.9 -6.8z"/>
 </g>
 <g fill="#91653e">
 </g>
 <g fill="#de6017">
 </g>
 <g fill="#b37440">
 </g>
 <g fill="#f77412">
  <path d="M489.5 798.3 c-15.5 -10.2 -36.3 -20.4 -60.4 -29.4 -14.3 -5.3 -14.3 -5.3 -13.8 -27.4 0.5 -24.9 2.2 -36.6 8.7 -62 5.7 -22.4 9.3 -33.8 16.6 -52.2 3.5 -8.9 6.4 -16.5 6.4 -16.9 0 -2.3 -19.2 6.9 -31.5 15.1 -14.9 9.9 -35.1 29.2 -39.6 37.8 -2 3.9 -2 3.9 -5.5 0 -6.1 -6.8 -13.3 -18.5 -16.5 -26.8 -7.2 -18.3 -10.7 -49.5 -8 -69.9 0.7 -4.8 1 -9 0.7 -9.3 -0.2 -0.3 -2.9 1.6 -6 4.1 -3.5 2.9 -7.6 5.1 -11.3 6.1 -3.2 1 -6.6 2.1 -7.5 2.6 -4.5 2.3 -41 -14 -57.3 -25.6 -32.1 -22.9 -56.9 -59.1 -67 -98.1 -1.7 -6.5 -2.2 -10.1 -1.5 -10.8 1.5 -1.5 43.7 -2 59.1 -0.7 30.9 2.8 60.8 10 90.6 21.9 12.1 4.8 12.1 4.8 18.5 -0.1 3.5 -2.7 8.4 -6.8 10.9 -9.1 17.9 -16 45.3 -29.5 69.4 -34.1 26.4 -5.1 43.1 -4.3 73.2 3.5 19.5 5.1 28.2 5.9 38.9 3.5 10.3 -2.3 26.8 -8.1 47.3 -16.6 9 -3.8 17.7 -6.9 19.3 -6.9 2.9 0 2.9 0 -0.7 4.6 -3.9 5.2 -3.9 5.2 -2.4 9.1 1.5 4 4.2 6.7 14 13.9 9.2 6.8 12.5 10.4 16 17.8 1.3 2.5 2.6 4.6 3 4.6 1.1 0 2.9 -5.8 3.6 -11.7 0.4 -4.2 0.9 -5.3 2.1 -5.1 2.5 0.5 3.4 7.1 2.9 19.8 -0.6 13.9 -2.3 20.5 -8.3 32.8 -4.8 9.9 -6.3 11.6 -3.7 4.2 0.8 -2.5 1.8 -7.3 2 -10.7 0.6 -6.3 0.6 -6.3 -3.5 -6.3 -7.3 0 -26 12 -43.4 27.9 -11.3 10.3 -24.6 32.3 -25.6 42.1 -1.2 12.3 10.1 20.1 32.2 22.1 8.9 0.8 13.1 0.7 21.5 -0.5 5.8 -0.9 11.9 -1.6 13.8 -1.6 3.1 0 3.3 0.2 3.3 3.3 0 5.3 -4.4 12.7 -12.2 20.4 -10.9 10.7 -15 12.6 -45 20.2 -23.5 6 -43.2 15.2 -58.4 27.5 -11 8.8 -19 17.7 -24.5 27.2 -12.5 21.5 -17.7 43.4 -18.6 78.4 -0.6 21.7 0.8 39.1 4.5 57.3 1 4.8 1.6 8.7 1.3 8.6 -0.3 0 -3.7 -2.1 -7.6 -4.6z m-161.4 -251 c2.5 -1.1 6.9 -4.4 9.7 -7.2 5.1 -5.1 6.5 -8.1 3.9 -8.1 -4.8 0 -64.5 -37.9 -62 -39.3 1 -0.5 18.1 0.9 28.8 2.3 11.1 1.5 26.8 4.7 34.3 6.9 6.2 1.9 6.2 1.9 6.2 -0.4 0 -4.2 -1.9 -12.5 -4.2 -17.6 -2.8 -6.7 -9.9 -12 -27.3 -20.4 -20 -9.7 -41.3 -15.9 -64 -18.5 -10.8 -1.2 -44.5 -1.3 -44.5 -0.2 0 2 8.3 21.1 13.7 31.5 21 40.4 48 65.5 77.7 72.3 8.6 1.9 21.9 1.3 27.7 -1.3z m127.1 -71.4 c8 -3.2 13.2 -4.5 24.8 -6.4 5.8 -0.9 14 -3 18.3 -4.5 7.9 -2.9 19.7 -9.5 19.7 -11 0 -1.4 -13.6 -2.2 -29 -1.8 -16.7 0.4 -20.2 1.6 -29.1 9.6 -5.5 5 -12.8 16.2 -10.4 16.2 0.2 0 2.8 -0.9 5.7 -2.1z"/>
 </g>
 <g fill="#c79054">
 </g>
 <g fill="#f08b36">
  <path d="M489.5 798.3 c-15.5 -10.2 -36.3 -20.4 -60.4 -29.4 -14.3 -5.3 -14.3 -5.3 -13.8 -27.4 0.5 -24.9 2.2 -36.6 8.7 -62 5.7 -22.4 9.3 -33.8 16.6 -52.2 3.5 -8.9 6.4 -16.5 6.4 -16.9 0 -2.1 -18.5 6.6 -29.9 14 -12.5 8.1 -25.4 19.4 -35.3 30.9 -3.2 3.7 -5.8 6.6 -5.8 6.4 0 -1.1 5.2 -15 7.4 -19.9 14.3 -31.9 44.2 -65.4 78.5 -88.2 4 -2.7 15.7 -9.3 26 -14.6 33.4 -17.3 43.3 -25.4 69.9 -56.5 25 -29.2 48.9 -51.6 64.4 -60 5 -2.7 5 -2.7 10.6 1.1 8 5.5 14.3 12.2 17.1 18.2 1.4 2.9 2.8 5.2 3.2 5.2 1.1 0 2.9 -5.8 3.6 -11.7 0.4 -4.2 0.9 -5.3 2.1 -5.1 2.5 0.5 3.4 7.1 2.9 19.8 -0.6 13.9 -2.3 20.5 -8.3 32.8 -4.8 9.9 -6.3 11.6 -3.7 4.2 0.8 -2.5 1.8 -7.3 2 -10.7 0.6 -6.3 0.6 -6.3 -3.5 -6.3 -7.3 0 -26 12 -43.4 27.9 -11.3 10.3 -24.6 32.3 -25.6 42.1 -1.2 12.3 10.1 20.1 32.2 22.1 8.9 0.8 13.1 0.7 21.5 -0.5 5.8 -0.9 11.9 -1.6 13.8 -1.6 3.1 0 3.3 0.2 3.3 3.3 0 5.3 -4.4 12.7 -12.2 20.4 -10.9 10.7 -15 12.6 -45 20.2 -23.5 6 -43.2 15.2 -58.4 27.5 -11 8.8 -19 17.7 -24.5 27.2 -12.5 21.5 -17.7 43.4 -18.6 78.4 -0.6 21.7 0.8 39.1 4.5 57.3 1 4.8 1.6 8.7 1.3 8.6 -0.3 0 -3.7 -2.1 -7.6 -4.6z"/>
 </g>
 <g fill="#fb9622">
  <path d="M337.4 474.8 c-7 -5.5 -31 -17.1 -43.9 -21.2 -22.2 -7 -40 -9.6 -67 -9.6 -18 0 -18 0 -19.6 -5.1 -1.6 -5.2 -1.6 -5.2 25.5 -4.6 35 0.7 52.1 3.1 82.1 11.8 12.8 3.7 40.8 13.9 42.3 15.3 0.3 0.4 -0.8 1.9 -2.5 3.4 -1.7 1.5 -5.1 5.2 -7.5 8.3 -4.4 5.5 -4.4 5.5 -9.4 1.7z"/>
  <path d="M372.5 450 c4.2 -4.4 5.3 -5.3 17.4 -13.4 24.6 -16.4 49.1 -24.5 79.1 -26.1 15.2 -0.8 26.1 0.7 48.7 6.5 19.5 5.1 28.2 5.9 38.9 3.5 10.3 -2.3 26.8 -8.1 47.3 -16.6 9 -3.8 17.7 -6.9 19.3 -6.9 2.8 0 2.8 0 -0.9 5 -2 2.8 -4.3 5 -5 5 -0.7 0 -10.6 4.3 -22 9.6 -23.5 10.8 -35.5 15.2 -44 15.9 -6.8 0.7 -15.7 -1.1 -38.3 -7.8 -19.2 -5.6 -30.3 -7.1 -45.7 -6.4 -14.4 0.6 -23.7 2.5 -41.3 8.3 -13.1 4.3 -40.8 17.2 -52 24.2 -5.5 3.4 -5.5 3.4 -1.5 -0.8z"/>
 </g>
 <g fill="#f1a047">
  <path d="M374.2 448.5 c3.7 -3.7 6.2 -5.3 7.2 -4.9 2.2 0.9 1.5 1.6 -6.1 6.3 -6.8 4.2 -6.8 4.2 -1.1 -1.4z"/>
  <path d="M620.4 401.8 c0.5 -2.2 0.3 -2.8 -1.1 -2.8 -1.2 0 -1.4 -0.3 -0.6 -1.1 0.6 -0.6 2.4 -0.9 4.1 -0.7 3.1 0.3 3.1 0.3 0.1 3.8 -3 3.5 -3 3.5 -2.5 0.8z"/>
 </g>
 <g fill="#fcb551">
  <path d="M423 684.5 c-0.1 -5.5 9.7 -37.3 17.6 -57.2 3.5 -8.9 6.4 -16.5 6.4 -16.9 0 -2.1 -18.5 6.6 -29.9 14 -12.5 8.1 -25.4 19.4 -35.3 30.9 -3.2 3.7 -5.8 6.6 -5.8 6.4 0 -1.1 5.2 -15 7.4 -19.9 14.3 -31.9 44.2 -65.4 78.5 -88.2 4 -2.7 15.7 -9.3 26 -14.6 33.4 -17.3 43.3 -25.4 69.9 -56.5 25 -29.2 48.9 -51.6 64.4 -60 5 -2.7 5 -2.7 10.6 1.1 8 5.5 14.3 12.2 17.1 18.2 1.4 2.9 2.8 5.2 3.2 5.2 1.1 0 2.9 -5.8 3.6 -11.7 0.4 -4.2 0.9 -5.3 2.1 -5.1 2.5 0.5 3.4 7.1 2.9 19.8 -0.6 13.9 -2.3 20.5 -8.3 32.8 -4.8 9.9 -6.3 11.6 -3.7 4.2 0.8 -2.5 1.8 -7.3 2 -10.7 0.6 -6.3 0.6 -6.3 -3.5 -6.3 -7.3 0 -26 12 -43.4 27.9 -11.3 10.3 -24.6 32.3 -25.6 42.1 -1.2 12.3 10.1 20.1 32.2 22.1 8.9 0.8 13.1 0.7 21.5 -0.5 5.8 -0.9 11.9 -1.6 13.8 -1.6 3.1 0 3.3 0.2 3.3 3.3 0 1.8 -1.1 5.5 -2.5 8.3 -3 6.1 -15.3 18.3 -22 22 -4.8 2.6 -16 4.9 -14.8 3.1 1.2 -2 -30.7 1.5 -53.2 5.9 -44.5 8.7 -71.4 20.3 -97.7 42.4 -12.3 10.2 -30.4 30.4 -35.6 39.5 -1.1 2 -1.1 2 -1.2 0z"/>
 </g>
 <g fill="#ecbb6c">
  <path d="M660.5 447.7 c0 -12.5 -1.4 -14.9 -3.9 -7 -0.9 2.6 -1.3 3.7 -1 2.3 0.2 -1.4 0.7 -4.9 1.1 -7.8 0.5 -4.1 0.9 -5.2 2.2 -5 0.9 0.2 1.9 1.7 2.2 3.3 0.9 4.3 1 24.3 0.2 24.8 -0.5 0.3 -0.8 -4.5 -0.8 -10.6z"/>
 </g>
</svg>